<?xml version="1.0" standalone="no"?>
<!DOCTYPE svg PUBLIC "-//W3C//DTD SVG 20010904//EN"
 "http://www.w3.org/TR/2001/REC-SVG-20010904/DTD/svg10.dtd">
<svg version="1.0" xmlns="http://www.w3.org/2000/svg"
 width="840.000000pt" height="840.000000pt" viewBox="0 0 840.000000 840.000000"
 preserveAspectRatio="xMidYMid meet">
<metadata>
Created by potrace 1.14, written by Peter Selinger 2001-2017
</metadata>
<g transform="translate(0.000000,840.000000) scale(0.100000,-0.100000)"
fill="#000000" stroke="none">
<path d="M4885 8090 c-27 -3 -80 -5 -117 -5 -38 0 -68 -2 -68 -5 0 -3 -28 -5
-63 -6 -72 -1 -231 -12 -267 -18 -14 -2 -47 -8 -75 -12 -27 -4 -52 -8 -55 -9
-11 -2 -87 -17 -110 -21 -14 -3 -43 -10 -65 -16 -22 -5 -48 -12 -58 -14 -10
-2 -27 -6 -37 -9 -19 -6 -47 -12 -90 -21 -63 -12 -316 -87 -420 -124 -63 -22
-122 -42 -130 -44 -20 -6 -133 -53 -198 -82 -29 -13 -55 -24 -57 -24 -17 0
-332 -165 -444 -232 -34 -21 -65 -38 -67 -38 -3 0 -10 -5 -17 -10 -7 -6 -55
-38 -107 -72 -52 -34 -96 -65 -98 -70 -2 -4 -8 -8 -13 -8 -8 0 -140 -98 -215
-159 -92 -76 -120 -99 -157 -131 -23 -19 -52 -45 -64 -57 -13 -13 -25 -23 -27
-23 -13 0 -341 -323 -446 -439 -36 -40 -76 -84 -90 -99 -78 -86 -224 -261
-310 -372 -19 -25 -37 -47 -40 -50 -3 -3 -9 -12 -15 -21 -5 -9 -42 -59 -81
-110 -39 -52 -89 -121 -109 -154 -21 -33 -42 -61 -47 -63 -4 -2 -8 -8 -8 -14
0 -5 -10 -24 -22 -41 -13 -18 -23 -34 -23 -37 0 -3 -8 -16 -17 -30 -78 -122
-227 -423 -288 -580 -11 -30 -27 -68 -34 -85 -23 -50 -123 -338 -131 -374 -2
-9 -18 -63 -35 -120 -18 -58 -34 -115 -36 -128 -2 -12 -9 -34 -14 -48 -5 -14
-7 -25 -5 -25 2 0 0 -11 -5 -25 -5 -14 -12 -36 -14 -48 -3 -12 -15 -65 -27
-117 -12 -52 -23 -102 -24 -110 -1 -8 -5 -26 -8 -40 -23 -93 -31 -207 -31
-445 0 -204 3 -273 21 -475 3 -41 7 -96 7 -122 1 -27 4 -48 7 -48 3 0 5 -18 5
-41 -1 -22 2 -43 7 -46 4 -2 5 -8 3 -12 -3 -4 -1 -25 4 -47 5 -21 12 -55 15
-74 11 -65 36 -156 66 -241 16 -46 31 -91 33 -99 4 -17 53 -127 66 -150 5 -8
19 -35 31 -60 29 -60 114 -202 158 -265 68 -98 136 -191 166 -225 44 -53 296
-300 304 -300 5 0 19 -10 32 -21 13 -12 40 -33 59 -48 19 -14 37 -28 40 -32 3
-3 68 -47 145 -97 77 -51 145 -97 152 -102 7 -6 17 -10 23 -10 5 0 10 -4 10
-8 0 -4 12 -13 27 -19 16 -7 35 -17 43 -22 76 -52 318 -173 440 -221 30 -12
69 -28 85 -35 28 -13 213 -74 239 -79 6 -2 29 -8 51 -14 33 -9 127 -30 220
-48 40 -8 150 -22 230 -30 285 -27 724 -27 970 1 185 20 229 26 236 31 4 2 24
6 45 9 135 20 304 74 304 96 0 10 51 28 100 34 25 3 59 9 75 12 17 3 41 6 55
8 28 3 100 14 145 21 17 3 48 8 70 10 22 3 51 7 65 9 14 2 45 6 70 9 25 3 54
8 66 10 12 2 43 7 70 10 27 4 65 9 84 12 19 3 52 6 72 7 21 1 38 4 38 7 0 3
17 6 38 8 36 2 77 9 77 12 0 1 14 3 30 5 17 2 41 7 55 11 14 3 36 8 50 10 22
4 125 32 205 55 17 5 33 9 38 9 4 0 21 7 37 15 17 9 30 13 30 9 0 -4 6 -2 13
3 6 6 46 22 87 36 112 38 194 73 293 125 130 68 141 74 147 82 3 4 16 13 30
20 24 13 210 147 220 159 3 3 23 19 45 35 22 16 49 37 60 48 11 10 63 53 115
95 52 43 100 82 107 88 7 5 18 15 25 20 44 33 114 90 118 95 3 3 14 13 26 21
78 54 343 309 426 409 70 85 141 176 158 200 8 13 24 35 36 49 11 14 51 73 89
131 115 178 102 156 202 335 47 84 153 294 201 400 77 171 87 195 116 275 15
41 32 84 37 95 5 11 16 45 25 75 8 30 17 62 19 70 17 57 28 100 35 135 4 22
11 52 14 68 36 168 41 469 12 752 -3 28 -8 82 -11 120 -4 39 -9 90 -11 115 -3
25 -7 68 -9 95 -3 28 -7 66 -9 85 -3 19 -7 62 -10 94 -4 33 -9 72 -11 88 -3
16 -7 53 -9 83 -2 29 -7 59 -11 65 -3 5 -6 20 -5 33 1 12 1 24 0 27 -4 10 -7
37 -13 90 -6 52 -31 210 -41 256 -2 12 -7 37 -10 56 -3 20 -10 47 -15 62 -6
14 -8 26 -6 26 2 0 0 12 -6 28 -6 15 -13 36 -15 46 -5 24 -33 115 -44 141 -4
11 -18 47 -31 80 -24 65 -111 246 -156 323 -28 49 -135 212 -158 240 -146 184
-374 424 -538 567 -38 33 -76 67 -85 76 -10 8 -55 46 -102 83 -120 96 -125
100 -142 111 -8 6 -55 37 -104 69 -117 78 -345 209 -357 205 -3 -2 -81 35 -87
41 -3 3 -9 6 -15 7 -5 1 -59 21 -119 43 -60 22 -116 42 -125 44 -9 2 -23 6
-31 9 -29 12 -262 64 -324 72 -57 8 -121 16 -161 20 -25 3 -64 7 -87 10 -24 3
-79 7 -123 10 -44 2 -80 5 -80 6 0 9 -356 17 -430 9z"/>
</g>
</svg>
